solid OpenSCAD_Model
  facet normal 0.998027 0.0627905 0
    outer loop
      vertex 60 0 10
      vertex 59.5269 7.51999 0
      vertex 59.5269 7.51999 10
    endloop
  endfacet
  facet normal 0.998027 0.0627905 0
    outer loop
      vertex 59.5269 7.51999 0
      vertex 60 0 10
      vertex 60 0 0
    endloop
  endfacet
  facet normal -0.998027 0.0627905 0
    outer loop
      vertex -60 0 0
      vertex -59.5269 7.51999 10
      vertex -59.5269 7.51999 0
    endloop
  endfacet
  facet normal -0.998027 0.0627905 0
    outer loop
      vertex -59.5269 7.51999 10
      vertex -60 0 0
      vertex -60 0 10
    endloop
  endfacet
  facet normal 0 1 -0
    outer loop
      vertex 3.76743 59.8816 0
      vertex -3.76743 59.8816 10
      vertex 3.76743 59.8816 10
    endloop
  endfacet
  facet normal 0 1 0
    outer loop
      vertex -3.76743 59.8816 10
      vertex 3.76743 59.8816 0
      vertex -3.76743 59.8816 0
    endloop
  endfacet
  facet normal 0 -1 0
    outer loop
      vertex -3.76743 -59.8816 0
      vertex 3.76743 -59.8816 10
      vertex -3.76743 -59.8816 10
    endloop
  endfacet
  facet normal 0 -1 -0
    outer loop
      vertex 3.76743 -59.8816 10
      vertex -3.76743 -59.8816 0
      vertex 3.76743 -59.8816 0
    endloop
  endfacet
  facet normal 0.770513 -0.637424 0
    outer loop
      vertex 43.7381 -41.0728 10
      vertex 48.541 -35.2671 0
      vertex 48.541 -35.2671 10
    endloop
  endfacet
  facet normal 0.770513 -0.637424 0
    outer loop
      vertex 48.541 -35.2671 0
      vertex 43.7381 -41.0728 10
      vertex 43.7381 -41.0728 0
    endloop
  endfacet
  facet normal 0.684547 0.728969 -0
    outer loop
      vertex 43.7381 41.0728 0
      vertex 38.2454 46.2308 10
      vertex 43.7381 41.0728 10
    endloop
  endfacet
  facet normal 0.684547 0.728969 0
    outer loop
      vertex 38.2454 46.2308 10
      vertex 43.7381 41.0728 0
      vertex 38.2454 46.2308 0
    endloop
  endfacet
  facet normal -0.684547 0.728969 0
    outer loop
      vertex -38.2454 46.2308 0
      vertex -43.7381 41.0728 10
      vertex -38.2454 46.2308 10
    endloop
  endfacet
  facet normal -0.684547 0.728969 0
    outer loop
      vertex -43.7381 41.0728 10
      vertex -38.2454 46.2308 0
      vertex -43.7381 41.0728 0
    endloop
  endfacet
  facet normal -0.368125 0.929776 0
    outer loop
      vertex -18.541 57.0634 0
      vertex -25.5468 54.2896 10
      vertex -18.541 57.0634 10
    endloop
  endfacet
  facet normal -0.368125 0.929776 0
    outer loop
      vertex -25.5468 54.2896 10
      vertex -18.541 57.0634 0
      vertex -25.5468 54.2896 0
    endloop
  endfacet
  facet normal 0.951057 -0.309017 0
    outer loop
      vertex 55.7866 -22.0875 10
      vertex 58.115 -14.9214 0
      vertex 58.115 -14.9214 10
    endloop
  endfacet
  facet normal 0.951057 -0.309017 0
    outer loop
      vertex 58.115 -14.9214 0
      vertex 55.7866 -22.0875 10
      vertex 55.7866 -22.0875 0
    endloop
  endfacet
  facet normal 0.904827 0.42578 0
    outer loop
      vertex 55.7866 22.0875 10
      vertex 52.5784 28.9052 0
      vertex 52.5784 28.9052 10
    endloop
  endfacet
  facet normal 0.904827 0.42578 0
    outer loop
      vertex 52.5784 28.9052 0
      vertex 55.7866 22.0875 10
      vertex 55.7866 22.0875 0
    endloop
  endfacet
  facet normal 0.982287 0.187381 0
    outer loop
      vertex 59.5269 7.51999 10
      vertex 58.115 14.9214 0
      vertex 58.115 14.9214 10
    endloop
  endfacet
  facet normal 0.982287 0.187381 0
    outer loop
      vertex 58.115 14.9214 0
      vertex 59.5269 7.51999 10
      vertex 59.5269 7.51999 0
    endloop
  endfacet
  facet normal 0.844328 0.535827 0
    outer loop
      vertex 52.5784 28.9052 10
      vertex 48.541 35.2671 0
      vertex 48.541 35.2671 10
    endloop
  endfacet
  facet normal 0.844328 0.535827 0
    outer loop
      vertex 48.541 35.2671 0
      vertex 52.5784 28.9052 10
      vertex 52.5784 28.9052 0
    endloop
  endfacet
  facet normal 0.368125 0.929776 -0
    outer loop
      vertex 25.5468 54.2896 0
      vertex 18.541 57.0634 10
      vertex 25.5468 54.2896 10
    endloop
  endfacet
  facet normal 0.368125 0.929776 0
    outer loop
      vertex 18.541 57.0634 10
      vertex 25.5468 54.2896 0
      vertex 18.541 57.0634 0
    endloop
  endfacet
  facet normal 0.248689 0.968583 -0
    outer loop
      vertex 18.541 57.0634 0
      vertex 11.2429 58.9372 10
      vertex 18.541 57.0634 10
    endloop
  endfacet
  facet normal 0.248689 0.968583 0
    outer loop
      vertex 11.2429 58.9372 10
      vertex 18.541 57.0634 0
      vertex 11.2429 58.9372 0
    endloop
  endfacet
  facet normal 0.587786 0.809017 -0
    outer loop
      vertex 38.2454 46.2308 0
      vertex 32.1496 50.6597 10
      vertex 38.2454 46.2308 10
    endloop
  endfacet
  facet normal 0.587786 0.809017 0
    outer loop
      vertex 32.1496 50.6597 10
      vertex 38.2454 46.2308 0
      vertex 32.1496 50.6597 0
    endloop
  endfacet
  facet normal -0.904827 0.42578 0
    outer loop
      vertex -55.7866 22.0875 0
      vertex -52.5784 28.9052 10
      vertex -52.5784 28.9052 0
    endloop
  endfacet
  facet normal -0.904827 0.42578 0
    outer loop
      vertex -52.5784 28.9052 10
      vertex -55.7866 22.0875 0
      vertex -55.7866 22.0875 10
    endloop
  endfacet
  facet normal -0.770513 0.637424 0
    outer loop
      vertex -48.541 35.2671 0
      vertex -43.7381 41.0728 10
      vertex -43.7381 41.0728 0
    endloop
  endfacet
  facet normal -0.770513 0.637424 0
    outer loop
      vertex -43.7381 41.0728 10
      vertex -48.541 35.2671 0
      vertex -48.541 35.2671 10
    endloop
  endfacet
  facet normal -0.951057 0.309017 0
    outer loop
      vertex -58.115 14.9214 0
      vertex -55.7866 22.0875 10
      vertex -55.7866 22.0875 0
    endloop
  endfacet
  facet normal -0.951057 0.309017 0
    outer loop
      vertex -55.7866 22.0875 10
      vertex -58.115 14.9214 0
      vertex -58.115 14.9214 10
    endloop
  endfacet
  facet normal -0.481754 0.876307 0
    outer loop
      vertex -25.5468 54.2896 0
      vertex -32.1496 50.6597 10
      vertex -25.5468 54.2896 10
    endloop
  endfacet
  facet normal -0.481754 0.876307 0
    outer loop
      vertex -32.1496 50.6597 10
      vertex -25.5468 54.2896 0
      vertex -32.1496 50.6597 0
    endloop
  endfacet
  facet normal -0.248689 0.968583 0
    outer loop
      vertex -11.2429 58.9372 0
      vertex -18.541 57.0634 10
      vertex -11.2429 58.9372 10
    endloop
  endfacet
  facet normal -0.248689 0.968583 0
    outer loop
      vertex -18.541 57.0634 10
      vertex -11.2429 58.9372 0
      vertex -18.541 57.0634 0
    endloop
  endfacet
  facet normal 0.368125 -0.929776 0
    outer loop
      vertex 18.541 -57.0634 0
      vertex 25.5468 -54.2896 10
      vertex 18.541 -57.0634 10
    endloop
  endfacet
  facet normal 0.368125 -0.929776 0
    outer loop
      vertex 25.5468 -54.2896 10
      vertex 18.541 -57.0634 0
      vertex 25.5468 -54.2896 0
    endloop
  endfacet
  facet normal 0.481754 -0.876307 0
    outer loop
      vertex 25.5468 -54.2896 0
      vertex 32.1496 -50.6597 10
      vertex 25.5468 -54.2896 10
    endloop
  endfacet
  facet normal 0.481754 -0.876307 0
    outer loop
      vertex 32.1496 -50.6597 10
      vertex 25.5468 -54.2896 0
      vertex 32.1496 -50.6597 0
    endloop
  endfacet
  facet normal 0.951057 0.309017 0
    outer loop
      vertex 58.115 14.9214 10
      vertex 55.7866 22.0875 0
      vertex 55.7866 22.0875 10
    endloop
  endfacet
  facet normal 0.951057 0.309017 0
    outer loop
      vertex 55.7866 22.0875 0
      vertex 58.115 14.9214 10
      vertex 58.115 14.9214 0
    endloop
  endfacet
  facet normal 0.770513 0.637424 0
    outer loop
      vertex 48.541 35.2671 10
      vertex 43.7381 41.0728 0
      vertex 43.7381 41.0728 10
    endloop
  endfacet
  facet normal 0.770513 0.637424 0
    outer loop
      vertex 43.7381 41.0728 0
      vertex 48.541 35.2671 10
      vertex 48.541 35.2671 0
    endloop
  endfacet
  facet normal 0.125333 0.992115 -0
    outer loop
      vertex 11.2429 58.9372 0
      vertex 3.76743 59.8816 10
      vertex 11.2429 58.9372 10
    endloop
  endfacet
  facet normal 0.125333 0.992115 0
    outer loop
      vertex 3.76743 59.8816 10
      vertex 11.2429 58.9372 0
      vertex 3.76743 59.8816 0
    endloop
  endfacet
  facet normal 0.481754 0.876307 -0
    outer loop
      vertex 32.1496 50.6597 0
      vertex 25.5468 54.2896 10
      vertex 32.1496 50.6597 10
    endloop
  endfacet
  facet normal 0.481754 0.876307 0
    outer loop
      vertex 25.5468 54.2896 10
      vertex 32.1496 50.6597 0
      vertex 25.5468 54.2896 0
    endloop
  endfacet
  facet normal -0.844328 0.535827 0
    outer loop
      vertex -52.5784 28.9052 0
      vertex -48.541 35.2671 10
      vertex -48.541 35.2671 0
    endloop
  endfacet
  facet normal -0.844328 0.535827 0
    outer loop
      vertex -48.541 35.2671 10
      vertex -52.5784 28.9052 0
      vertex -52.5784 28.9052 10
    endloop
  endfacet
  facet normal -0.982287 0.187381 0
    outer loop
      vertex -59.5269 7.51999 0
      vertex -58.115 14.9214 10
      vertex -58.115 14.9214 0
    endloop
  endfacet
  facet normal -0.982287 0.187381 0
    outer loop
      vertex -58.115 14.9214 10
      vertex -59.5269 7.51999 0
      vertex -59.5269 7.51999 10
    endloop
  endfacet
  facet normal 0 0 1
    outer loop
      vertex 17.5 0 10
      vertex 60 0 10
      vertex 59.5269 7.51999 10
    endloop
  endfacet
  facet normal 0 0 1
    outer loop
      vertex 17.362 2.19333 10
      vertex 59.5269 7.51999 10
      vertex 58.115 14.9214 10
    endloop
  endfacet
  facet normal 0 0 1
    outer loop
      vertex 60 0 10
      vertex 17.5 0 10
      vertex 59.5269 -7.51999 10
    endloop
  endfacet
  facet normal 0 0 1
    outer loop
      vertex 16.9502 4.35207 10
      vertex 58.115 14.9214 10
      vertex 55.7866 22.0875 10
    endloop
  endfacet
  facet normal -0 0 1
    outer loop
      vertex 17.362 -2.19333 10
      vertex 59.5269 -7.51999 10
      vertex 17.5 0 10
    endloop
  endfacet
  facet normal 0 0 1
    outer loop
      vertex 16.2711 6.44218 10
      vertex 55.7866 22.0875 10
      vertex 52.5784 28.9052 10
    endloop
  endfacet
  facet normal 0 0 1
    outer loop
      vertex 59.5269 -7.51999 10
      vertex 17.362 -2.19333 10
      vertex 58.115 -14.9214 10
    endloop
  endfacet
  facet normal 0 0 1
    outer loop
      vertex 15.3354 8.43069 10
      vertex 52.5784 28.9052 10
      vertex 48.541 35.2671 10
    endloop
  endfacet
  facet normal -0 0 1
    outer loop
      vertex 16.9502 -4.35207 10
      vertex 58.115 -14.9214 10
      vertex 17.362 -2.19333 10
    endloop
  endfacet
  facet normal 0 0 1
    outer loop
      vertex 14.1578 10.2862 10
      vertex 48.541 35.2671 10
      vertex 43.7381 41.0728 10
    endloop
  endfacet
  facet normal 0 0 1
    outer loop
      vertex 58.115 -14.9214 10
      vertex 16.9502 -4.35207 10
      vertex 55.7866 -22.0875 10
    endloop
  endfacet
  facet normal 0 0 1
    outer loop
      vertex 12.757 11.9796 10
      vertex 43.7381 41.0728 10
      vertex 38.2454 46.2308 10
    endloop
  endfacet
  facet normal -0 0 1
    outer loop
      vertex 16.2711 -6.44218 10
      vertex 55.7866 -22.0875 10
      vertex 16.9502 -4.35207 10
    endloop
  endfacet
  facet normal 0 0 1
    outer loop
      vertex 11.1549 13.484 10
      vertex 38.2454 46.2308 10
      vertex 32.1496 50.6597 10
    endloop
  endfacet
  facet normal 0 0 1
    outer loop
      vertex 55.7866 -22.0875 10
      vertex 16.2711 -6.44218 10
      vertex 52.5784 -28.9052 10
    endloop
  endfacet
  facet normal 0 0 1
    outer loop
      vertex 9.37697 14.7757 10
      vertex 32.1496 50.6597 10
      vertex 25.5468 54.2896 10
    endloop
  endfacet
  facet normal -0 0 1
    outer loop
      vertex 15.3354 -8.43069 10
      vertex 52.5784 -28.9052 10
      vertex 16.2711 -6.44218 10
    endloop
  endfacet
  facet normal 0 0 1
    outer loop
      vertex 7.45114 15.8345 10
      vertex 25.5468 54.2896 10
      vertex 18.541 57.0634 10
    endloop
  endfacet
  facet normal 0 0 1
    outer loop
      vertex 52.5784 -28.9052 10
      vertex 15.3354 -8.43069 10
      vertex 48.541 -35.2671 10
    endloop
  endfacet
  facet normal -0 0 1
    outer loop
      vertex 14.1578 -10.2862 10
      vertex 48.541 -35.2671 10
      vertex 15.3354 -8.43069 10
    endloop
  endfacet
  facet normal 0 0 1
    outer loop
      vertex 59.5269 7.51999 10
      vertex 17.362 2.19333 10
      vertex 17.5 0 10
    endloop
  endfacet
  facet normal 0 0 1
    outer loop
      vertex 58.115 14.9214 10
      vertex 16.9502 4.35207 10
      vertex 17.362 2.19333 10
    endloop
  endfacet
  facet normal 0 0 1
    outer loop
      vertex 55.7866 22.0875 10
      vertex 16.2711 6.44218 10
      vertex 16.9502 4.35207 10
    endloop
  endfacet
  facet normal 0 0 1
    outer loop
      vertex 52.5784 28.9052 10
      vertex 15.3354 8.43069 10
      vertex 16.2711 6.44218 10
    endloop
  endfacet
  facet normal 0 0 1
    outer loop
      vertex 48.541 35.2671 10
      vertex 14.1578 10.2862 10
      vertex 15.3354 8.43069 10
    endloop
  endfacet
  facet normal 0 0 1
    outer loop
      vertex 43.7381 41.0728 10
      vertex 12.757 11.9796 10
      vertex 14.1578 10.2862 10
    endloop
  endfacet
  facet normal 0 0 1
    outer loop
      vertex 5.4078 16.6435 10
      vertex 18.541 57.0634 10
      vertex 11.2429 58.9372 10
    endloop
  endfacet
  facet normal 0 0 1
    outer loop
      vertex 38.2454 46.2308 10
      vertex 11.1549 13.484 10
      vertex 12.757 11.9796 10
    endloop
  endfacet
  facet normal 0 0 1
    outer loop
      vertex 32.1496 50.6597 10
      vertex 9.37697 14.7757 10
      vertex 11.1549 13.484 10
    endloop
  endfacet
  facet normal 0 0 1
    outer loop
      vertex 25.5468 54.2896 10
      vertex 7.45114 15.8345 10
      vertex 9.37697 14.7757 10
    endloop
  endfacet
  facet normal 0 0 1
    outer loop
      vertex 18.541 57.0634 10
      vertex 5.4078 16.6435 10
      vertex 7.45114 15.8345 10
    endloop
  endfacet
  facet normal 0 0 1
    outer loop
      vertex 3.27917 17.19 10
      vertex 11.2429 58.9372 10
      vertex 3.76743 59.8816 10
    endloop
  endfacet
  facet normal 0 0 1
    outer loop
      vertex 11.2429 58.9372 10
      vertex 3.27917 17.19 10
      vertex 5.4078 16.6435 10
    endloop
  endfacet
  facet normal 0 0 1
    outer loop
      vertex 3.76743 59.8816 10
      vertex 1.09883 17.4655 10
      vertex 3.27917 17.19 10
    endloop
  endfacet
  facet normal 0 0 1
    outer loop
      vertex 3.76743 59.8816 10
      vertex -1.09883 17.4655 10
      vertex 1.09883 17.4655 10
    endloop
  endfacet
  facet normal -0 0 1
    outer loop
      vertex -3.76743 59.8816 10
      vertex -1.09883 17.4655 10
      vertex 3.76743 59.8816 10
    endloop
  endfacet
  facet normal 0 0 1
    outer loop
      vertex -1.09883 17.4655 10
      vertex -3.76743 59.8816 10
      vertex -3.27917 17.19 10
    endloop
  endfacet
  facet normal -0 0 1
    outer loop
      vertex -11.2429 58.9372 10
      vertex -3.27917 17.19 10
      vertex -3.76743 59.8816 10
    endloop
  endfacet
  facet normal 0 0 1
    outer loop
      vertex -3.27917 17.19 10
      vertex -11.2429 58.9372 10
      vertex -5.4078 16.6435 10
    endloop
  endfacet
  facet normal -0 0 1
    outer loop
      vertex -18.541 57.0634 10
      vertex -5.4078 16.6435 10
      vertex -11.2429 58.9372 10
    endloop
  endfacet
  facet normal 0 0 1
    outer loop
      vertex -5.4078 16.6435 10
      vertex -18.541 57.0634 10
      vertex -7.45114 15.8345 10
    endloop
  endfacet
  facet normal -0 0 1
    outer loop
      vertex -25.5468 54.2896 10
      vertex -7.45114 15.8345 10
      vertex -18.541 57.0634 10
    endloop
  endfacet
  facet normal 0 0 1
    outer loop
      vertex -7.45114 15.8345 10
      vertex -25.5468 54.2896 10
      vertex -9.37697 14.7757 10
    endloop
  endfacet
  facet normal -0 0 1
    outer loop
      vertex -32.1496 50.6597 10
      vertex -9.37697 14.7757 10
      vertex -25.5468 54.2896 10
    endloop
  endfacet
  facet normal 0 0 1
    outer loop
      vertex -9.37697 14.7757 10
      vertex -32.1496 50.6597 10
      vertex -11.1549 13.484 10
    endloop
  endfacet
  facet normal -0 0 1
    outer loop
      vertex -38.2454 46.2308 10
      vertex -11.1549 13.484 10
      vertex -32.1496 50.6597 10
    endloop
  endfacet
  facet normal 0 0 1
    outer loop
      vertex -11.1549 13.484 10
      vertex -38.2454 46.2308 10
      vertex -12.757 11.9796 10
    endloop
  endfacet
  facet normal -0 0 1
    outer loop
      vertex -43.7381 41.0728 10
      vertex -12.757 11.9796 10
      vertex -38.2454 46.2308 10
    endloop
  endfacet
  facet normal -0 0 1
    outer loop
      vertex -48.541 35.2671 10
      vertex -14.1578 10.2862 10
      vertex -43.7381 41.0728 10
    endloop
  endfacet
  facet normal 0 0 1
    outer loop
      vertex -12.757 11.9796 10
      vertex -43.7381 41.0728 10
      vertex -14.1578 10.2862 10
    endloop
  endfacet
  facet normal 0 0 1
    outer loop
      vertex 48.541 -35.2671 10
      vertex 14.1578 -10.2862 10
      vertex 43.7381 -41.0728 10
    endloop
  endfacet
  facet normal -0 0 1
    outer loop
      vertex 12.757 -11.9796 10
      vertex 43.7381 -41.0728 10
      vertex 14.1578 -10.2862 10
    endloop
  endfacet
  facet normal 0 0 1
    outer loop
      vertex 43.7381 -41.0728 10
      vertex 12.757 -11.9796 10
      vertex 38.2454 -46.2308 10
    endloop
  endfacet
  facet normal -0 0 1
    outer loop
      vertex 11.1549 -13.484 10
      vertex 38.2454 -46.2308 10
      vertex 12.757 -11.9796 10
    endloop
  endfacet
  facet normal 0 0 1
    outer loop
      vertex 38.2454 -46.2308 10
      vertex 11.1549 -13.484 10
      vertex 32.1496 -50.6597 10
    endloop
  endfacet
  facet normal -0 0 1
    outer loop
      vertex 9.37697 -14.7757 10
      vertex 32.1496 -50.6597 10
      vertex 11.1549 -13.484 10
    endloop
  endfacet
  facet normal 0 0 1
    outer loop
      vertex 32.1496 -50.6597 10
      vertex 9.37697 -14.7757 10
      vertex 25.5468 -54.2896 10
    endloop
  endfacet
  facet normal -0 0 1
    outer loop
      vertex 7.45114 -15.8345 10
      vertex 25.5468 -54.2896 10
      vertex 9.37697 -14.7757 10
    endloop
  endfacet
  facet normal 0 0 1
    outer loop
      vertex 25.5468 -54.2896 10
      vertex 7.45114 -15.8345 10
      vertex 18.541 -57.0634 10
    endloop
  endfacet
  facet normal -0 0 1
    outer loop
      vertex 5.4078 -16.6435 10
      vertex 18.541 -57.0634 10
      vertex 7.45114 -15.8345 10
    endloop
  endfacet
  facet normal 0 0 1
    outer loop
      vertex 18.541 -57.0634 10
      vertex 5.4078 -16.6435 10
      vertex 11.2429 -58.9372 10
    endloop
  endfacet
  facet normal -0 0 1
    outer loop
      vertex 3.27917 -17.19 10
      vertex 11.2429 -58.9372 10
      vertex 5.4078 -16.6435 10
    endloop
  endfacet
  facet normal 0 0 1
    outer loop
      vertex 11.2429 -58.9372 10
      vertex 3.27917 -17.19 10
      vertex 3.76743 -59.8816 10
    endloop
  endfacet
  facet normal -0 0 1
    outer loop
      vertex 1.09883 -17.4655 10
      vertex 3.76743 -59.8816 10
      vertex 3.27917 -17.19 10
    endloop
  endfacet
  facet normal -0 0 1
    outer loop
      vertex -1.09883 -17.4655 10
      vertex 3.76743 -59.8816 10
      vertex 1.09883 -17.4655 10
    endloop
  endfacet
  facet normal 0 0 1
    outer loop
      vertex -3.76743 -59.8816 10
      vertex -1.09883 -17.4655 10
      vertex -3.27917 -17.19 10
    endloop
  endfacet
  facet normal 0 0 1
    outer loop
      vertex -1.09883 -17.4655 10
      vertex -3.76743 -59.8816 10
      vertex 3.76743 -59.8816 10
    endloop
  endfacet
  facet normal 0 0 1
    outer loop
      vertex -11.2429 -58.9372 10
      vertex -3.27917 -17.19 10
      vertex -5.4078 -16.6435 10
    endloop
  endfacet
  facet normal 0 0 1
    outer loop
      vertex -18.541 -57.0634 10
      vertex -5.4078 -16.6435 10
      vertex -7.45114 -15.8345 10
    endloop
  endfacet
  facet normal 0 0 1
    outer loop
      vertex -25.5468 -54.2896 10
      vertex -7.45114 -15.8345 10
      vertex -9.37697 -14.7757 10
    endloop
  endfacet
  facet normal 0 0 1
    outer loop
      vertex -32.1496 -50.6597 10
      vertex -9.37697 -14.7757 10
      vertex -11.1549 -13.484 10
    endloop
  endfacet
  facet normal 0 0 1
    outer loop
      vertex -3.27917 -17.19 10
      vertex -11.2429 -58.9372 10
      vertex -3.76743 -59.8816 10
    endloop
  endfacet
  facet normal 0 0 1
    outer loop
      vertex -38.2454 -46.2308 10
      vertex -11.1549 -13.484 10
      vertex -12.757 -11.9796 10
    endloop
  endfacet
  facet normal 0 0 1
    outer loop
      vertex -43.7381 -41.0728 10
      vertex -12.757 -11.9796 10
      vertex -14.1578 -10.2862 10
    endloop
  endfacet
  facet normal 0 0 1
    outer loop
      vertex -48.541 -35.2671 10
      vertex -14.1578 -10.2862 10
      vertex -15.3354 -8.43069 10
    endloop
  endfacet
  facet normal 0 0 1
    outer loop
      vertex -52.5784 -28.9052 10
      vertex -15.3354 -8.43069 10
      vertex -16.2711 -6.44218 10
    endloop
  endfacet
  facet normal 0 0 1
    outer loop
      vertex -55.7866 -22.0875 10
      vertex -16.2711 -6.44218 10
      vertex -16.9502 -4.35207 10
    endloop
  endfacet
  facet normal 0 0 1
    outer loop
      vertex -58.115 -14.9214 10
      vertex -16.9502 -4.35207 10
      vertex -17.362 -2.19333 10
    endloop
  endfacet
  facet normal 0 0 1
    outer loop
      vertex -5.4078 -16.6435 10
      vertex -18.541 -57.0634 10
      vertex -11.2429 -58.9372 10
    endloop
  endfacet
  facet normal 0 0 1
    outer loop
      vertex -59.5269 -7.51999 10
      vertex -17.362 -2.19333 10
      vertex -17.5 0 10
    endloop
  endfacet
  facet normal 0 0 1
    outer loop
      vertex -14.1578 10.2862 10
      vertex -48.541 35.2671 10
      vertex -15.3354 8.43069 10
    endloop
  endfacet
  facet normal -0 0 1
    outer loop
      vertex -52.5784 28.9052 10
      vertex -15.3354 8.43069 10
      vertex -48.541 35.2671 10
    endloop
  endfacet
  facet normal 0 0 1
    outer loop
      vertex -7.45114 -15.8345 10
      vertex -25.5468 -54.2896 10
      vertex -18.541 -57.0634 10
    endloop
  endfacet
  facet normal 0 0 1
    outer loop
      vertex -15.3354 8.43069 10
      vertex -52.5784 28.9052 10
      vertex -16.2711 6.44218 10
    endloop
  endfacet
  facet normal 0 0 1
    outer loop
      vertex -9.37697 -14.7757 10
      vertex -32.1496 -50.6597 10
      vertex -25.5468 -54.2896 10
    endloop
  endfacet
  facet normal -0 0 1
    outer loop
      vertex -55.7866 22.0875 10
      vertex -16.2711 6.44218 10
      vertex -52.5784 28.9052 10
    endloop
  endfacet
  facet normal 0 0 1
    outer loop
      vertex -11.1549 -13.484 10
      vertex -38.2454 -46.2308 10
      vertex -32.1496 -50.6597 10
    endloop
  endfacet
  facet normal 0 0 1
    outer loop
      vertex -16.2711 6.44218 10
      vertex -55.7866 22.0875 10
      vertex -16.9502 4.35207 10
    endloop
  endfacet
  facet normal 0 0 1
    outer loop
      vertex -12.757 -11.9796 10
      vertex -43.7381 -41.0728 10
      vertex -38.2454 -46.2308 10
    endloop
  endfacet
  facet normal -0 0 1
    outer loop
      vertex -58.115 14.9214 10
      vertex -16.9502 4.35207 10
      vertex -55.7866 22.0875 10
    endloop
  endfacet
  facet normal 0 0 1
    outer loop
      vertex -14.1578 -10.2862 10
      vertex -48.541 -35.2671 10
      vertex -43.7381 -41.0728 10
    endloop
  endfacet
  facet normal 0 0 1
    outer loop
      vertex -16.9502 4.35207 10
      vertex -58.115 14.9214 10
      vertex -17.362 2.19333 10
    endloop
  endfacet
  facet normal 0 0 1
    outer loop
      vertex -15.3354 -8.43069 10
      vertex -52.5784 -28.9052 10
      vertex -48.541 -35.2671 10
    endloop
  endfacet
  facet normal -0 0 1
    outer loop
      vertex -59.5269 7.51999 10
      vertex -17.362 2.19333 10
      vertex -58.115 14.9214 10
    endloop
  endfacet
  facet normal 0 0 1
    outer loop
      vertex -16.2711 -6.44218 10
      vertex -55.7866 -22.0875 10
      vertex -52.5784 -28.9052 10
    endloop
  endfacet
  facet normal 0 0 1
    outer loop
      vertex -17.362 2.19333 10
      vertex -59.5269 7.51999 10
      vertex -17.5 0 10
    endloop
  endfacet
  facet normal 0 0 1
    outer loop
      vertex -16.9502 -4.35207 10
      vertex -58.115 -14.9214 10
      vertex -55.7866 -22.0875 10
    endloop
  endfacet
  facet normal 0 0 1
    outer loop
      vertex -60 0 10
      vertex -17.5 0 10
      vertex -59.5269 7.51999 10
    endloop
  endfacet
  facet normal 0 0 1
    outer loop
      vertex -17.362 -2.19333 10
      vertex -59.5269 -7.51999 10
      vertex -58.115 -14.9214 10
    endloop
  endfacet
  facet normal 0 0 1
    outer loop
      vertex -17.5 0 10
      vertex -60 0 10
      vertex -59.5269 -7.51999 10
    endloop
  endfacet
  facet normal -0.587786 0.809017 0
    outer loop
      vertex -32.1496 50.6597 0
      vertex -38.2454 46.2308 10
      vertex -32.1496 50.6597 10
    endloop
  endfacet
  facet normal -0.587786 0.809017 0
    outer loop
      vertex -38.2454 46.2308 10
      vertex -32.1496 50.6597 0
      vertex -38.2454 46.2308 0
    endloop
  endfacet
  facet normal -0.125333 0.992115 0
    outer loop
      vertex -3.76743 59.8816 0
      vertex -11.2429 58.9372 10
      vertex -3.76743 59.8816 10
    endloop
  endfacet
  facet normal -0.125333 0.992115 0
    outer loop
      vertex -11.2429 58.9372 10
      vertex -3.76743 59.8816 0
      vertex -11.2429 58.9372 0
    endloop
  endfacet
  facet normal 0.998027 -0.0627905 0
    outer loop
      vertex 59.5269 -7.51999 10
      vertex 60 0 0
      vertex 60 0 10
    endloop
  endfacet
  facet normal 0.998027 -0.0627905 0
    outer loop
      vertex 60 0 0
      vertex 59.5269 -7.51999 10
      vertex 59.5269 -7.51999 0
    endloop
  endfacet
  facet normal 0.844328 -0.535827 0
    outer loop
      vertex 48.541 -35.2671 10
      vertex 52.5784 -28.9052 0
      vertex 52.5784 -28.9052 10
    endloop
  endfacet
  facet normal 0.844328 -0.535827 0
    outer loop
      vertex 52.5784 -28.9052 0
      vertex 48.541 -35.2671 10
      vertex 48.541 -35.2671 0
    endloop
  endfacet
  facet normal 0.982287 -0.187381 0
    outer loop
      vertex 58.115 -14.9214 10
      vertex 59.5269 -7.51999 0
      vertex 59.5269 -7.51999 10
    endloop
  endfacet
  facet normal 0.982287 -0.187381 0
    outer loop
      vertex 59.5269 -7.51999 0
      vertex 58.115 -14.9214 10
      vertex 58.115 -14.9214 0
    endloop
  endfacet
  facet normal -0.770513 -0.637424 0
    outer loop
      vertex -43.7381 -41.0728 0
      vertex -48.541 -35.2671 10
      vertex -48.541 -35.2671 0
    endloop
  endfacet
  facet normal -0.770513 -0.637424 0
    outer loop
      vertex -48.541 -35.2671 10
      vertex -43.7381 -41.0728 0
      vertex -43.7381 -41.0728 10
    endloop
  endfacet
  facet normal 0 0 -1
    outer loop
      vertex 59.5269 -7.51999 0
      vertex 59.5269 7.51999 0
      vertex 60 0 0
    endloop
  endfacet
  facet normal 0 0 -1
    outer loop
      vertex 58.115 -14.9214 0
      vertex 59.5269 7.51999 0
      vertex 59.5269 -7.51999 0
    endloop
  endfacet
  facet normal 0 0 -1
    outer loop
      vertex 58.115 -14.9214 0
      vertex 58.115 14.9214 0
      vertex 59.5269 7.51999 0
    endloop
  endfacet
  facet normal 0 0 -1
    outer loop
      vertex 55.7866 -22.0875 0
      vertex 58.115 14.9214 0
      vertex 58.115 -14.9214 0
    endloop
  endfacet
  facet normal 0 0 -1
    outer loop
      vertex 55.7866 -22.0875 0
      vertex 55.7866 22.0875 0
      vertex 58.115 14.9214 0
    endloop
  endfacet
  facet normal 0 0 -1
    outer loop
      vertex 52.5784 -28.9052 0
      vertex 55.7866 22.0875 0
      vertex 55.7866 -22.0875 0
    endloop
  endfacet
  facet normal 0 0 -1
    outer loop
      vertex 52.5784 -28.9052 0
      vertex 52.5784 28.9052 0
      vertex 55.7866 22.0875 0
    endloop
  endfacet
  facet normal 0 0 -1
    outer loop
      vertex 48.541 -35.2671 0
      vertex 52.5784 28.9052 0
      vertex 52.5784 -28.9052 0
    endloop
  endfacet
  facet normal 0 0 -1
    outer loop
      vertex 48.541 -35.2671 0
      vertex 48.541 35.2671 0
      vertex 52.5784 28.9052 0
    endloop
  endfacet
  facet normal 0 0 -1
    outer loop
      vertex 43.7381 -41.0728 0
      vertex 48.541 35.2671 0
      vertex 48.541 -35.2671 0
    endloop
  endfacet
  facet normal 0 0 -1
    outer loop
      vertex 43.7381 -41.0728 0
      vertex 43.7381 41.0728 0
      vertex 48.541 35.2671 0
    endloop
  endfacet
  facet normal 0 0 -1
    outer loop
      vertex 38.2454 -46.2308 0
      vertex 43.7381 41.0728 0
      vertex 43.7381 -41.0728 0
    endloop
  endfacet
  facet normal 0 0 -1
    outer loop
      vertex 38.2454 -46.2308 0
      vertex 38.2454 46.2308 0
      vertex 43.7381 41.0728 0
    endloop
  endfacet
  facet normal 0 0 -1
    outer loop
      vertex 32.1496 -50.6597 0
      vertex 38.2454 46.2308 0
      vertex 38.2454 -46.2308 0
    endloop
  endfacet
  facet normal 0 0 -1
    outer loop
      vertex 32.1496 -50.6597 0
      vertex 32.1496 50.6597 0
      vertex 38.2454 46.2308 0
    endloop
  endfacet
  facet normal 0 0 -1
    outer loop
      vertex 25.5468 -54.2896 0
      vertex 32.1496 50.6597 0
      vertex 32.1496 -50.6597 0
    endloop
  endfacet
  facet normal 0 0 -1
    outer loop
      vertex 25.5468 -54.2896 0
      vertex 25.5468 54.2896 0
      vertex 32.1496 50.6597 0
    endloop
  endfacet
  facet normal 0 0 -1
    outer loop
      vertex 18.541 -57.0634 0
      vertex 25.5468 54.2896 0
      vertex 25.5468 -54.2896 0
    endloop
  endfacet
  facet normal 0 0 -1
    outer loop
      vertex 18.541 -57.0634 0
      vertex 18.541 57.0634 0
      vertex 25.5468 54.2896 0
    endloop
  endfacet
  facet normal 0 0 -1
    outer loop
      vertex 11.2429 -58.9372 0
      vertex 18.541 57.0634 0
      vertex 18.541 -57.0634 0
    endloop
  endfacet
  facet normal 0 0 -1
    outer loop
      vertex 11.2429 -58.9372 0
      vertex 11.2429 58.9372 0
      vertex 18.541 57.0634 0
    endloop
  endfacet
  facet normal 0 0 -1
    outer loop
      vertex 3.76743 -59.8816 0
      vertex 11.2429 58.9372 0
      vertex 11.2429 -58.9372 0
    endloop
  endfacet
  facet normal 0 0 -1
    outer loop
      vertex 3.76743 -59.8816 0
      vertex 3.76743 59.8816 0
      vertex 11.2429 58.9372 0
    endloop
  endfacet
  facet normal 0 0 -1
    outer loop
      vertex -3.76743 -59.8816 0
      vertex 3.76743 59.8816 0
      vertex 3.76743 -59.8816 0
    endloop
  endfacet
  facet normal 0 0 -1
    outer loop
      vertex -3.76743 -59.8816 0
      vertex -3.76743 59.8816 0
      vertex 3.76743 59.8816 0
    endloop
  endfacet
  facet normal 0 0 -1
    outer loop
      vertex -11.2429 -58.9372 0
      vertex -3.76743 59.8816 0
      vertex -3.76743 -59.8816 0
    endloop
  endfacet
  facet normal 0 0 -1
    outer loop
      vertex -11.2429 -58.9372 0
      vertex -11.2429 58.9372 0
      vertex -3.76743 59.8816 0
    endloop
  endfacet
  facet normal 0 0 -1
    outer loop
      vertex -18.541 -57.0634 0
      vertex -11.2429 58.9372 0
      vertex -11.2429 -58.9372 0
    endloop
  endfacet
  facet normal 0 0 -1
    outer loop
      vertex -18.541 -57.0634 0
      vertex -18.541 57.0634 0
      vertex -11.2429 58.9372 0
    endloop
  endfacet
  facet normal 0 0 -1
    outer loop
      vertex -25.5468 -54.2896 0
      vertex -18.541 57.0634 0
      vertex -18.541 -57.0634 0
    endloop
  endfacet
  facet normal 0 0 -1
    outer loop
      vertex -25.5468 -54.2896 0
      vertex -25.5468 54.2896 0
      vertex -18.541 57.0634 0
    endloop
  endfacet
  facet normal 0 0 -1
    outer loop
      vertex -32.1496 -50.6597 0
      vertex -25.5468 54.2896 0
      vertex -25.5468 -54.2896 0
    endloop
  endfacet
  facet normal 0 0 -1
    outer loop
      vertex -32.1496 -50.6597 0
      vertex -32.1496 50.6597 0
      vertex -25.5468 54.2896 0
    endloop
  endfacet
  facet normal 0 0 -1
    outer loop
      vertex -38.2454 -46.2308 0
      vertex -32.1496 50.6597 0
      vertex -32.1496 -50.6597 0
    endloop
  endfacet
  facet normal 0 0 -1
    outer loop
      vertex -38.2454 -46.2308 0
      vertex -38.2454 46.2308 0
      vertex -32.1496 50.6597 0
    endloop
  endfacet
  facet normal 0 0 -1
    outer loop
      vertex -43.7381 -41.0728 0
      vertex -38.2454 46.2308 0
      vertex -38.2454 -46.2308 0
    endloop
  endfacet
  facet normal 0 0 -1
    outer loop
      vertex -43.7381 -41.0728 0
      vertex -43.7381 41.0728 0
      vertex -38.2454 46.2308 0
    endloop
  endfacet
  facet normal 0 0 -1
    outer loop
      vertex -48.541 -35.2671 0
      vertex -43.7381 41.0728 0
      vertex -43.7381 -41.0728 0
    endloop
  endfacet
  facet normal 0 0 -1
    outer loop
      vertex -48.541 -35.2671 0
      vertex -48.541 35.2671 0
      vertex -43.7381 41.0728 0
    endloop
  endfacet
  facet normal 0 0 -1
    outer loop
      vertex -52.5784 -28.9052 0
      vertex -48.541 35.2671 0
      vertex -48.541 -35.2671 0
    endloop
  endfacet
  facet normal 0 0 -1
    outer loop
      vertex -52.5784 -28.9052 0
      vertex -52.5784 28.9052 0
      vertex -48.541 35.2671 0
    endloop
  endfacet
  facet normal 0 0 -1
    outer loop
      vertex -55.7866 -22.0875 0
      vertex -52.5784 28.9052 0
      vertex -52.5784 -28.9052 0
    endloop
  endfacet
  facet normal 0 0 -1
    outer loop
      vertex -55.7866 -22.0875 0
      vertex -55.7866 22.0875 0
      vertex -52.5784 28.9052 0
    endloop
  endfacet
  facet normal 0 0 -1
    outer loop
      vertex -58.115 -14.9214 0
      vertex -55.7866 22.0875 0
      vertex -55.7866 -22.0875 0
    endloop
  endfacet
  facet normal 0 0 -1
    outer loop
      vertex -58.115 -14.9214 0
      vertex -58.115 14.9214 0
      vertex -55.7866 22.0875 0
    endloop
  endfacet
  facet normal 0 0 -1
    outer loop
      vertex -59.5269 -7.51999 0
      vertex -58.115 14.9214 0
      vertex -58.115 -14.9214 0
    endloop
  endfacet
  facet normal 0 0 -1
    outer loop
      vertex -59.5269 -7.51999 0
      vertex -59.5269 7.51999 0
      vertex -58.115 14.9214 0
    endloop
  endfacet
  facet normal 0 -0 -1
    outer loop
      vertex -59.5269 7.51999 0
      vertex -59.5269 -7.51999 0
      vertex -60 0 0
    endloop
  endfacet
  facet normal 0.587786 -0.809017 0
    outer loop
      vertex 32.1496 -50.6597 0
      vertex 38.2454 -46.2308 10
      vertex 32.1496 -50.6597 10
    endloop
  endfacet
  facet normal 0.587786 -0.809017 0
    outer loop
      vertex 38.2454 -46.2308 10
      vertex 32.1496 -50.6597 0
      vertex 38.2454 -46.2308 0
    endloop
  endfacet
  facet normal 0.904827 -0.42578 0
    outer loop
      vertex 52.5784 -28.9052 10
      vertex 55.7866 -22.0875 0
      vertex 55.7866 -22.0875 10
    endloop
  endfacet
  facet normal 0.904827 -0.42578 0
    outer loop
      vertex 55.7866 -22.0875 0
      vertex 52.5784 -28.9052 10
      vertex 52.5784 -28.9052 0
    endloop
  endfacet
  facet normal -0.248689 -0.968583 0
    outer loop
      vertex -18.541 -57.0634 0
      vertex -11.2429 -58.9372 10
      vertex -18.541 -57.0634 10
    endloop
  endfacet
  facet normal -0.248689 -0.968583 -0
    outer loop
      vertex -11.2429 -58.9372 10
      vertex -18.541 -57.0634 0
      vertex -11.2429 -58.9372 0
    endloop
  endfacet
  facet normal -0.951057 -0.309017 0
    outer loop
      vertex -55.7866 -22.0875 0
      vertex -58.115 -14.9214 10
      vertex -58.115 -14.9214 0
    endloop
  endfacet
  facet normal -0.951057 -0.309017 0
    outer loop
      vertex -58.115 -14.9214 10
      vertex -55.7866 -22.0875 0
      vertex -55.7866 -22.0875 10
    endloop
  endfacet
  facet normal 0.684547 -0.728969 0
    outer loop
      vertex 38.2454 -46.2308 0
      vertex 43.7381 -41.0728 10
      vertex 38.2454 -46.2308 10
    endloop
  endfacet
  facet normal 0.684547 -0.728969 0
    outer loop
      vertex 43.7381 -41.0728 10
      vertex 38.2454 -46.2308 0
      vertex 43.7381 -41.0728 0
    endloop
  endfacet
  facet normal -0.125333 -0.992115 0
    outer loop
      vertex -11.2429 -58.9372 0
      vertex -3.76743 -59.8816 10
      vertex -11.2429 -58.9372 10
    endloop
  endfacet
  facet normal -0.125333 -0.992115 -0
    outer loop
      vertex -3.76743 -59.8816 10
      vertex -11.2429 -58.9372 0
      vertex -3.76743 -59.8816 0
    endloop
  endfacet
  facet normal -0.368125 -0.929776 0
    outer loop
      vertex -25.5468 -54.2896 0
      vertex -18.541 -57.0634 10
      vertex -25.5468 -54.2896 10
    endloop
  endfacet
  facet normal -0.368125 -0.929776 -0
    outer loop
      vertex -18.541 -57.0634 10
      vertex -25.5468 -54.2896 0
      vertex -18.541 -57.0634 0
    endloop
  endfacet
  facet normal -0.844328 -0.535827 0
    outer loop
      vertex -48.541 -35.2671 0
      vertex -52.5784 -28.9052 10
      vertex -52.5784 -28.9052 0
    endloop
  endfacet
  facet normal -0.844328 -0.535827 0
    outer loop
      vertex -52.5784 -28.9052 10
      vertex -48.541 -35.2671 0
      vertex -48.541 -35.2671 10
    endloop
  endfacet
  facet normal -0.904827 -0.42578 0
    outer loop
      vertex -52.5784 -28.9052 0
      vertex -55.7866 -22.0875 10
      vertex -55.7866 -22.0875 0
    endloop
  endfacet
  facet normal -0.904827 -0.42578 0
    outer loop
      vertex -55.7866 -22.0875 10
      vertex -52.5784 -28.9052 0
      vertex -52.5784 -28.9052 10
    endloop
  endfacet
  facet normal -0.982287 -0.187381 0
    outer loop
      vertex -58.115 -14.9214 0
      vertex -59.5269 -7.51999 10
      vertex -59.5269 -7.51999 0
    endloop
  endfacet
  facet normal -0.982287 -0.187381 0
    outer loop
      vertex -59.5269 -7.51999 10
      vertex -58.115 -14.9214 0
      vertex -58.115 -14.9214 10
    endloop
  endfacet
  facet normal -0.998027 -0.0627905 0
    outer loop
      vertex -59.5269 -7.51999 0
      vertex -60 0 10
      vertex -60 0 0
    endloop
  endfacet
  facet normal -0.998027 -0.0627905 0
    outer loop
      vertex -60 0 10
      vertex -59.5269 -7.51999 0
      vertex -59.5269 -7.51999 10
    endloop
  endfacet
  facet normal 0.248689 -0.968583 0
    outer loop
      vertex 11.2429 -58.9372 0
      vertex 18.541 -57.0634 10
      vertex 11.2429 -58.9372 10
    endloop
  endfacet
  facet normal 0.248689 -0.968583 0
    outer loop
      vertex 18.541 -57.0634 10
      vertex 11.2429 -58.9372 0
      vertex 18.541 -57.0634 0
    endloop
  endfacet
  facet normal 0.125333 -0.992115 0
    outer loop
      vertex 3.76743 -59.8816 0
      vertex 11.2429 -58.9372 10
      vertex 3.76743 -59.8816 10
    endloop
  endfacet
  facet normal 0.125333 -0.992115 0
    outer loop
      vertex 11.2429 -58.9372 10
      vertex 3.76743 -59.8816 0
      vertex 11.2429 -58.9372 0
    endloop
  endfacet
  facet normal -0.481754 -0.876307 0
    outer loop
      vertex -32.1496 -50.6597 0
      vertex -25.5468 -54.2896 10
      vertex -32.1496 -50.6597 10
    endloop
  endfacet
  facet normal -0.481754 -0.876307 -0
    outer loop
      vertex -25.5468 -54.2896 10
      vertex -32.1496 -50.6597 0
      vertex -25.5468 -54.2896 0
    endloop
  endfacet
  facet normal -0.587786 -0.809017 0
    outer loop
      vertex -38.2454 -46.2308 0
      vertex -32.1496 -50.6597 10
      vertex -38.2454 -46.2308 10
    endloop
  endfacet
  facet normal -0.587786 -0.809017 -0
    outer loop
      vertex -32.1496 -50.6597 10
      vertex -38.2454 -46.2308 0
      vertex -32.1496 -50.6597 0
    endloop
  endfacet
  facet normal -0.684547 -0.728969 0
    outer loop
      vertex -43.7381 -41.0728 0
      vertex -38.2454 -46.2308 10
      vertex -43.7381 -41.0728 10
    endloop
  endfacet
  facet normal -0.684547 -0.728969 -0
    outer loop
      vertex -38.2454 -46.2308 10
      vertex -43.7381 -41.0728 0
      vertex -38.2454 -46.2308 0
    endloop
  endfacet
  facet normal -0.951056 0.309017 0
    outer loop
      vertex -16.9502 4.35207 10
      vertex -16.2711 6.44218 229.9
      vertex -16.2711 6.44218 10
    endloop
  endfacet
  facet normal -0.951056 0.309017 0
    outer loop
      vertex -16.2711 6.44218 229.9
      vertex -16.9502 4.35207 10
      vertex -16.9502 4.35207 229.9
    endloop
  endfacet
  facet normal 0.844328 0.535827 0
    outer loop
      vertex 15.3354 8.43069 229.9
      vertex 14.1578 10.2862 10
      vertex 14.1578 10.2862 229.9
    endloop
  endfacet
  facet normal 0.844328 0.535827 0
    outer loop
      vertex 14.1578 10.2862 10
      vertex 15.3354 8.43069 229.9
      vertex 15.3354 8.43069 10
    endloop
  endfacet
  facet normal 0.368125 0.929776 -0
    outer loop
      vertex 7.45114 15.8345 10
      vertex 5.4078 16.6435 229.9
      vertex 7.45114 15.8345 229.9
    endloop
  endfacet
  facet normal 0.368125 0.929776 0
    outer loop
      vertex 5.4078 16.6435 229.9
      vertex 7.45114 15.8345 10
      vertex 5.4078 16.6435 10
    endloop
  endfacet
  facet normal -0.368125 0.929776 0
    outer loop
      vertex -5.4078 16.6435 10
      vertex -7.45114 15.8345 229.9
      vertex -5.4078 16.6435 229.9
    endloop
  endfacet
  facet normal -0.368125 0.929776 0
    outer loop
      vertex -7.45114 15.8345 229.9
      vertex -5.4078 16.6435 10
      vertex -7.45114 15.8345 10
    endloop
  endfacet
  facet normal -0.904827 0.425779 0
    outer loop
      vertex -16.2711 6.44218 10
      vertex -15.3354 8.43069 229.9
      vertex -15.3354 8.43069 10
    endloop
  endfacet
  facet normal -0.904827 0.425779 0
    outer loop
      vertex -15.3354 8.43069 229.9
      vertex -16.2711 6.44218 10
      vertex -16.2711 6.44218 229.9
    endloop
  endfacet
  facet normal 0.982287 -0.187381 0
    outer loop
      vertex 16.9502 -4.35207 229.9
      vertex 17.362 -2.19333 10
      vertex 17.362 -2.19333 229.9
    endloop
  endfacet
  facet normal 0.982287 -0.187381 0
    outer loop
      vertex 17.362 -2.19333 10
      vertex 16.9502 -4.35207 229.9
      vertex 16.9502 -4.35207 10
    endloop
  endfacet
  facet normal 0.982287 0.187381 0
    outer loop
      vertex 17.362 2.19333 229.9
      vertex 16.9502 4.35207 10
      vertex 16.9502 4.35207 229.9
    endloop
  endfacet
  facet normal 0.982287 0.187381 0
    outer loop
      vertex 16.9502 4.35207 10
      vertex 17.362 2.19333 229.9
      vertex 17.362 2.19333 10
    endloop
  endfacet
  facet normal 0.684547 0.728969 -0
    outer loop
      vertex 12.757 11.9796 10
      vertex 11.1549 13.484 229.9
      vertex 12.757 11.9796 229.9
    endloop
  endfacet
  facet normal 0.684547 0.728969 0
    outer loop
      vertex 11.1549 13.484 229.9
      vertex 12.757 11.9796 10
      vertex 11.1549 13.484 10
    endloop
  endfacet
  facet normal 0 1 -0
    outer loop
      vertex 1.09883 17.4655 10
      vertex -1.09883 17.4655 229.9
      vertex 1.09883 17.4655 229.9
    endloop
  endfacet
  facet normal 0 1 0
    outer loop
      vertex -1.09883 17.4655 229.9
      vertex 1.09883 17.4655 10
      vertex -1.09883 17.4655 10
    endloop
  endfacet
  facet normal 0.481754 0.876307 -0
    outer loop
      vertex 9.37697 14.7757 10
      vertex 7.45114 15.8345 229.9
      vertex 9.37697 14.7757 229.9
    endloop
  endfacet
  facet normal 0.481754 0.876307 0
    outer loop
      vertex 7.45114 15.8345 229.9
      vertex 9.37697 14.7757 10
      vertex 7.45114 15.8345 10
    endloop
  endfacet
  facet normal -0.770513 0.637424 0
    outer loop
      vertex -14.1578 10.2862 10
      vertex -12.757 11.9796 229.9
      vertex -12.757 11.9796 10
    endloop
  endfacet
  facet normal -0.770513 0.637424 0
    outer loop
      vertex -12.757 11.9796 229.9
      vertex -14.1578 10.2862 10
      vertex -14.1578 10.2862 229.9
    endloop
  endfacet
  facet normal -0.248689 0.968583 0
    outer loop
      vertex -3.27917 17.19 10
      vertex -5.4078 16.6435 229.9
      vertex -3.27917 17.19 229.9
    endloop
  endfacet
  facet normal -0.248689 0.968583 0
    outer loop
      vertex -5.4078 16.6435 229.9
      vertex -3.27917 17.19 10
      vertex -5.4078 16.6435 10
    endloop
  endfacet
  facet normal -0.684547 0.728969 0
    outer loop
      vertex -11.1549 13.484 10
      vertex -12.757 11.9796 229.9
      vertex -11.1549 13.484 229.9
    endloop
  endfacet
  facet normal -0.684547 0.728969 0
    outer loop
      vertex -12.757 11.9796 229.9
      vertex -11.1549 13.484 10
      vertex -12.757 11.9796 10
    endloop
  endfacet
  facet normal 0.998027 0.0627906 0
    outer loop
      vertex 17.5 0 229.9
      vertex 17.362 2.19333 10
      vertex 17.362 2.19333 229.9
    endloop
  endfacet
  facet normal 0.998027 0.0627906 0
    outer loop
      vertex 17.362 2.19333 10
      vertex 17.5 0 229.9
      vertex 17.5 0 10
    endloop
  endfacet
  facet normal -0.684547 -0.728969 0
    outer loop
      vertex -12.757 -11.9796 10
      vertex -11.1549 -13.484 229.9
      vertex -12.757 -11.9796 229.9
    endloop
  endfacet
  facet normal -0.684547 -0.728969 -0
    outer loop
      vertex -11.1549 -13.484 229.9
      vertex -12.757 -11.9796 10
      vertex -11.1549 -13.484 10
    endloop
  endfacet
  facet normal -0.904827 -0.425779 0
    outer loop
      vertex -15.3354 -8.43069 10
      vertex -16.2711 -6.44218 229.9
      vertex -16.2711 -6.44218 10
    endloop
  endfacet
  facet normal -0.904827 -0.425779 0
    outer loop
      vertex -16.2711 -6.44218 229.9
      vertex -15.3354 -8.43069 10
      vertex -15.3354 -8.43069 229.9
    endloop
  endfacet
  facet normal 0.481754 -0.876307 0
    outer loop
      vertex 7.45114 -15.8345 10
      vertex 9.37697 -14.7757 229.9
      vertex 7.45114 -15.8345 229.9
    endloop
  endfacet
  facet normal 0.481754 -0.876307 0
    outer loop
      vertex 9.37697 -14.7757 229.9
      vertex 7.45114 -15.8345 10
      vertex 9.37697 -14.7757 10
    endloop
  endfacet
  facet normal 0.770513 0.637424 0
    outer loop
      vertex 14.1578 10.2862 229.9
      vertex 12.757 11.9796 10
      vertex 12.757 11.9796 229.9
    endloop
  endfacet
  facet normal 0.770513 0.637424 0
    outer loop
      vertex 12.757 11.9796 10
      vertex 14.1578 10.2862 229.9
      vertex 14.1578 10.2862 10
    endloop
  endfacet
  facet normal 0.248689 0.968583 -0
    outer loop
      vertex 5.4078 16.6435 10
      vertex 3.27917 17.19 229.9
      vertex 5.4078 16.6435 229.9
    endloop
  endfacet
  facet normal 0.248689 0.968583 0
    outer loop
      vertex 3.27917 17.19 229.9
      vertex 5.4078 16.6435 10
      vertex 3.27917 17.19 10
    endloop
  endfacet
  facet normal 0.125334 0.992115 -0
    outer loop
      vertex 3.27917 17.19 10
      vertex 1.09883 17.4655 229.9
      vertex 3.27917 17.19 229.9
    endloop
  endfacet
  facet normal 0.125334 0.992115 0
    outer loop
      vertex 1.09883 17.4655 229.9
      vertex 3.27917 17.19 10
      vertex 1.09883 17.4655 10
    endloop
  endfacet
  facet normal 0.587785 0.809017 -0
    outer loop
      vertex 11.1549 13.484 10
      vertex 9.37697 14.7757 229.9
      vertex 11.1549 13.484 229.9
    endloop
  endfacet
  facet normal 0.587785 0.809017 0
    outer loop
      vertex 9.37697 14.7757 229.9
      vertex 11.1549 13.484 10
      vertex 9.37697 14.7757 10
    endloop
  endfacet
  facet normal -0.998027 0.0627906 0
    outer loop
      vertex -17.5 0 10
      vertex -17.362 2.19333 229.9
      vertex -17.362 2.19333 10
    endloop
  endfacet
  facet normal -0.998027 0.0627906 0
    outer loop
      vertex -17.362 2.19333 229.9
      vertex -17.5 0 10
      vertex -17.5 0 229.9
    endloop
  endfacet
  facet normal -0.844328 0.535827 0
    outer loop
      vertex -15.3354 8.43069 10
      vertex -14.1578 10.2862 229.9
      vertex -14.1578 10.2862 10
    endloop
  endfacet
  facet normal -0.844328 0.535827 0
    outer loop
      vertex -14.1578 10.2862 229.9
      vertex -15.3354 8.43069 10
      vertex -15.3354 8.43069 229.9
    endloop
  endfacet
  facet normal -0.125334 0.992115 0
    outer loop
      vertex -1.09883 17.4655 10
      vertex -3.27917 17.19 229.9
      vertex -1.09883 17.4655 229.9
    endloop
  endfacet
  facet normal -0.125334 0.992115 0
    outer loop
      vertex -3.27917 17.19 229.9
      vertex -1.09883 17.4655 10
      vertex -3.27917 17.19 10
    endloop
  endfacet
  facet normal -0.587785 0.809017 0
    outer loop
      vertex -9.37697 14.7757 10
      vertex -11.1549 13.484 229.9
      vertex -9.37697 14.7757 229.9
    endloop
  endfacet
  facet normal -0.587785 0.809017 0
    outer loop
      vertex -11.1549 13.484 229.9
      vertex -9.37697 14.7757 10
      vertex -11.1549 13.484 10
    endloop
  endfacet
  facet normal -0.481754 0.876307 0
    outer loop
      vertex -7.45114 15.8345 10
      vertex -9.37697 14.7757 229.9
      vertex -7.45114 15.8345 229.9
    endloop
  endfacet
  facet normal -0.481754 0.876307 0
    outer loop
      vertex -9.37697 14.7757 229.9
      vertex -7.45114 15.8345 10
      vertex -9.37697 14.7757 10
    endloop
  endfacet
  facet normal 0.998027 -0.0627906 0
    outer loop
      vertex 17.362 -2.19333 229.9
      vertex 17.5 0 10
      vertex 17.5 0 229.9
    endloop
  endfacet
  facet normal 0.998027 -0.0627906 0
    outer loop
      vertex 17.5 0 10
      vertex 17.362 -2.19333 229.9
      vertex 17.362 -2.19333 10
    endloop
  endfacet
  facet normal 0.770513 -0.637424 0
    outer loop
      vertex 12.757 -11.9796 229.9
      vertex 14.1578 -10.2862 10
      vertex 14.1578 -10.2862 229.9
    endloop
  endfacet
  facet normal 0.770513 -0.637424 0
    outer loop
      vertex 14.1578 -10.2862 10
      vertex 12.757 -11.9796 229.9
      vertex 12.757 -11.9796 10
    endloop
  endfacet
  facet normal -0.844328 -0.535827 0
    outer loop
      vertex -14.1578 -10.2862 10
      vertex -15.3354 -8.43069 229.9
      vertex -15.3354 -8.43069 10
    endloop
  endfacet
  facet normal -0.844328 -0.535827 0
    outer loop
      vertex -15.3354 -8.43069 229.9
      vertex -14.1578 -10.2862 10
      vertex -14.1578 -10.2862 229.9
    endloop
  endfacet
  facet normal 0.125334 -0.992115 0
    outer loop
      vertex 1.09883 -17.4655 10
      vertex 3.27917 -17.19 229.9
      vertex 1.09883 -17.4655 229.9
    endloop
  endfacet
  facet normal 0.125334 -0.992115 0
    outer loop
      vertex 3.27917 -17.19 229.9
      vertex 1.09883 -17.4655 10
      vertex 3.27917 -17.19 10
    endloop
  endfacet
  facet normal 0.904827 0.425779 0
    outer loop
      vertex 16.2711 6.44218 229.9
      vertex 15.3354 8.43069 10
      vertex 15.3354 8.43069 229.9
    endloop
  endfacet
  facet normal 0.904827 0.425779 0
    outer loop
      vertex 15.3354 8.43069 10
      vertex 16.2711 6.44218 229.9
      vertex 16.2711 6.44218 10
    endloop
  endfacet
  facet normal 0.951056 0.309017 0
    outer loop
      vertex 16.9502 4.35207 229.9
      vertex 16.2711 6.44218 10
      vertex 16.2711 6.44218 229.9
    endloop
  endfacet
  facet normal 0.951056 0.309017 0
    outer loop
      vertex 16.2711 6.44218 10
      vertex 16.9502 4.35207 229.9
      vertex 16.9502 4.35207 10
    endloop
  endfacet
  facet normal 0 0 1
    outer loop
      vertex 17.362 2.19333 229.9
      vertex 17.362 -2.19333 229.9
      vertex 17.5 0 229.9
    endloop
  endfacet
  facet normal 0 0 1
    outer loop
      vertex 16.9502 4.35207 229.9
      vertex 17.362 -2.19333 229.9
      vertex 17.362 2.19333 229.9
    endloop
  endfacet
  facet normal 0 0 1
    outer loop
      vertex 16.9502 4.35207 229.9
      vertex 16.9502 -4.35207 229.9
      vertex 17.362 -2.19333 229.9
    endloop
  endfacet
  facet normal 0 0 1
    outer loop
      vertex 16.2711 6.44218 229.9
      vertex 16.9502 -4.35207 229.9
      vertex 16.9502 4.35207 229.9
    endloop
  endfacet
  facet normal 0 0 1
    outer loop
      vertex 16.2711 6.44218 229.9
      vertex 16.2711 -6.44218 229.9
      vertex 16.9502 -4.35207 229.9
    endloop
  endfacet
  facet normal 0 0 1
    outer loop
      vertex 15.3354 8.43069 229.9
      vertex 16.2711 -6.44218 229.9
      vertex 16.2711 6.44218 229.9
    endloop
  endfacet
  facet normal 0 0 1
    outer loop
      vertex 15.3354 8.43069 229.9
      vertex 15.3354 -8.43069 229.9
      vertex 16.2711 -6.44218 229.9
    endloop
  endfacet
  facet normal 0 0 1
    outer loop
      vertex 14.1578 10.2862 229.9
      vertex 15.3354 -8.43069 229.9
      vertex 15.3354 8.43069 229.9
    endloop
  endfacet
  facet normal 0 0 1
    outer loop
      vertex 14.1578 10.2862 229.9
      vertex 14.1578 -10.2862 229.9
      vertex 15.3354 -8.43069 229.9
    endloop
  endfacet
  facet normal 0 0 1
    outer loop
      vertex 12.757 11.9796 229.9
      vertex 14.1578 -10.2862 229.9
      vertex 14.1578 10.2862 229.9
    endloop
  endfacet
  facet normal 0 0 1
    outer loop
      vertex 12.757 11.9796 229.9
      vertex 12.757 -11.9796 229.9
      vertex 14.1578 -10.2862 229.9
    endloop
  endfacet
  facet normal 0 0 1
    outer loop
      vertex 11.1549 13.484 229.9
      vertex 12.757 -11.9796 229.9
      vertex 12.757 11.9796 229.9
    endloop
  endfacet
  facet normal 0 0 1
    outer loop
      vertex 11.1549 13.484 229.9
      vertex 11.1549 -13.484 229.9
      vertex 12.757 -11.9796 229.9
    endloop
  endfacet
  facet normal 0 0 1
    outer loop
      vertex 9.37697 14.7757 229.9
      vertex 11.1549 -13.484 229.9
      vertex 11.1549 13.484 229.9
    endloop
  endfacet
  facet normal 0 0 1
    outer loop
      vertex 9.37697 14.7757 229.9
      vertex 9.37697 -14.7757 229.9
      vertex 11.1549 -13.484 229.9
    endloop
  endfacet
  facet normal 0 0 1
    outer loop
      vertex 7.45114 15.8345 229.9
      vertex 9.37697 -14.7757 229.9
      vertex 9.37697 14.7757 229.9
    endloop
  endfacet
  facet normal 0 0 1
    outer loop
      vertex 7.45114 15.8345 229.9
      vertex 7.45114 -15.8345 229.9
      vertex 9.37697 -14.7757 229.9
    endloop
  endfacet
  facet normal 0 0 1
    outer loop
      vertex 5.4078 16.6435 229.9
      vertex 7.45114 -15.8345 229.9
      vertex 7.45114 15.8345 229.9
    endloop
  endfacet
  facet normal 0 0 1
    outer loop
      vertex 5.4078 16.6435 229.9
      vertex 5.4078 -16.6435 229.9
      vertex 7.45114 -15.8345 229.9
    endloop
  endfacet
  facet normal 0 0 1
    outer loop
      vertex 3.27917 17.19 229.9
      vertex 5.4078 -16.6435 229.9
      vertex 5.4078 16.6435 229.9
    endloop
  endfacet
  facet normal 0 0 1
    outer loop
      vertex 3.27917 17.19 229.9
      vertex 3.27917 -17.19 229.9
      vertex 5.4078 -16.6435 229.9
    endloop
  endfacet
  facet normal 0 0 1
    outer loop
      vertex 1.09883 17.4655 229.9
      vertex 3.27917 -17.19 229.9
      vertex 3.27917 17.19 229.9
    endloop
  endfacet
  facet normal 0 0 1
    outer loop
      vertex 1.09883 17.4655 229.9
      vertex 1.09883 -17.4655 229.9
      vertex 3.27917 -17.19 229.9
    endloop
  endfacet
  facet normal -0 0 1
    outer loop
      vertex -1.09883 17.4655 229.9
      vertex 1.09883 -17.4655 229.9
      vertex 1.09883 17.4655 229.9
    endloop
  endfacet
  facet normal 0 0 1
    outer loop
      vertex -1.09883 17.4655 229.9
      vertex -1.09883 -17.4655 229.9
      vertex 1.09883 -17.4655 229.9
    endloop
  endfacet
  facet normal -0 0 1
    outer loop
      vertex -3.27917 17.19 229.9
      vertex -1.09883 -17.4655 229.9
      vertex -1.09883 17.4655 229.9
    endloop
  endfacet
  facet normal 0 0 1
    outer loop
      vertex -3.27917 17.19 229.9
      vertex -3.27917 -17.19 229.9
      vertex -1.09883 -17.4655 229.9
    endloop
  endfacet
  facet normal -0 0 1
    outer loop
      vertex -5.4078 16.6435 229.9
      vertex -3.27917 -17.19 229.9
      vertex -3.27917 17.19 229.9
    endloop
  endfacet
  facet normal 0 0 1
    outer loop
      vertex -5.4078 16.6435 229.9
      vertex -5.4078 -16.6435 229.9
      vertex -3.27917 -17.19 229.9
    endloop
  endfacet
  facet normal -0 0 1
    outer loop
      vertex -7.45114 15.8345 229.9
      vertex -5.4078 -16.6435 229.9
      vertex -5.4078 16.6435 229.9
    endloop
  endfacet
  facet normal 0 0 1
    outer loop
      vertex -7.45114 15.8345 229.9
      vertex -7.45114 -15.8345 229.9
      vertex -5.4078 -16.6435 229.9
    endloop
  endfacet
  facet normal -0 0 1
    outer loop
      vertex -9.37697 14.7757 229.9
      vertex -7.45114 -15.8345 229.9
      vertex -7.45114 15.8345 229.9
    endloop
  endfacet
  facet normal 0 0 1
    outer loop
      vertex -9.37697 14.7757 229.9
      vertex -9.37697 -14.7757 229.9
      vertex -7.45114 -15.8345 229.9
    endloop
  endfacet
  facet normal -0 0 1
    outer loop
      vertex -11.1549 13.484 229.9
      vertex -9.37697 -14.7757 229.9
      vertex -9.37697 14.7757 229.9
    endloop
  endfacet
  facet normal 0 0 1
    outer loop
      vertex -11.1549 13.484 229.9
      vertex -11.1549 -13.484 229.9
      vertex -9.37697 -14.7757 229.9
    endloop
  endfacet
  facet normal -0 0 1
    outer loop
      vertex -12.757 11.9796 229.9
      vertex -11.1549 -13.484 229.9
      vertex -11.1549 13.484 229.9
    endloop
  endfacet
  facet normal 0 0 1
    outer loop
      vertex -12.757 11.9796 229.9
      vertex -12.757 -11.9796 229.9
      vertex -11.1549 -13.484 229.9
    endloop
  endfacet
  facet normal -0 0 1
    outer loop
      vertex -14.1578 10.2862 229.9
      vertex -12.757 -11.9796 229.9
      vertex -12.757 11.9796 229.9
    endloop
  endfacet
  facet normal 0 0 1
    outer loop
      vertex -14.1578 10.2862 229.9
      vertex -14.1578 -10.2862 229.9
      vertex -12.757 -11.9796 229.9
    endloop
  endfacet
  facet normal -0 0 1
    outer loop
      vertex -15.3354 8.43069 229.9
      vertex -14.1578 -10.2862 229.9
      vertex -14.1578 10.2862 229.9
    endloop
  endfacet
  facet normal 0 0 1
    outer loop
      vertex -15.3354 8.43069 229.9
      vertex -15.3354 -8.43069 229.9
      vertex -14.1578 -10.2862 229.9
    endloop
  endfacet
  facet normal -0 0 1
    outer loop
      vertex -16.2711 6.44218 229.9
      vertex -15.3354 -8.43069 229.9
      vertex -15.3354 8.43069 229.9
    endloop
  endfacet
  facet normal 0 0 1
    outer loop
      vertex -16.2711 6.44218 229.9
      vertex -16.2711 -6.44218 229.9
      vertex -15.3354 -8.43069 229.9
    endloop
  endfacet
  facet normal -0 0 1
    outer loop
      vertex -16.9502 4.35207 229.9
      vertex -16.2711 -6.44218 229.9
      vertex -16.2711 6.44218 229.9
    endloop
  endfacet
  facet normal 0 0 1
    outer loop
      vertex -16.9502 4.35207 229.9
      vertex -16.9502 -4.35207 229.9
      vertex -16.2711 -6.44218 229.9
    endloop
  endfacet
  facet normal -0 0 1
    outer loop
      vertex -17.362 2.19333 229.9
      vertex -16.9502 -4.35207 229.9
      vertex -16.9502 4.35207 229.9
    endloop
  endfacet
  facet normal 0 0 1
    outer loop
      vertex -17.362 2.19333 229.9
      vertex -17.362 -2.19333 229.9
      vertex -16.9502 -4.35207 229.9
    endloop
  endfacet
  facet normal 0 -0 1
    outer loop
      vertex -17.362 -2.19333 229.9
      vertex -17.362 2.19333 229.9
      vertex -17.5 0 229.9
    endloop
  endfacet
  facet normal -0.982287 0.187381 0
    outer loop
      vertex -17.362 2.19333 10
      vertex -16.9502 4.35207 229.9
      vertex -16.9502 4.35207 10
    endloop
  endfacet
  facet normal -0.982287 0.187381 0
    outer loop
      vertex -16.9502 4.35207 229.9
      vertex -17.362 2.19333 10
      vertex -17.362 2.19333 229.9
    endloop
  endfacet
  facet normal 0.904827 -0.425779 0
    outer loop
      vertex 15.3354 -8.43069 229.9
      vertex 16.2711 -6.44218 10
      vertex 16.2711 -6.44218 229.9
    endloop
  endfacet
  facet normal 0.904827 -0.425779 0
    outer loop
      vertex 16.2711 -6.44218 10
      vertex 15.3354 -8.43069 229.9
      vertex 15.3354 -8.43069 10
    endloop
  endfacet
  facet normal 0.951056 -0.309017 0
    outer loop
      vertex 16.2711 -6.44218 229.9
      vertex 16.9502 -4.35207 10
      vertex 16.9502 -4.35207 229.9
    endloop
  endfacet
  facet normal 0.951056 -0.309017 0
    outer loop
      vertex 16.9502 -4.35207 10
      vertex 16.2711 -6.44218 229.9
      vertex 16.2711 -6.44218 10
    endloop
  endfacet
  facet normal 0.844328 -0.535827 0
    outer loop
      vertex 14.1578 -10.2862 229.9
      vertex 15.3354 -8.43069 10
      vertex 15.3354 -8.43069 229.9
    endloop
  endfacet
  facet normal 0.844328 -0.535827 0
    outer loop
      vertex 15.3354 -8.43069 10
      vertex 14.1578 -10.2862 229.9
      vertex 14.1578 -10.2862 10
    endloop
  endfacet
  facet normal 0 -1 0
    outer loop
      vertex -1.09883 -17.4655 10
      vertex 1.09883 -17.4655 229.9
      vertex -1.09883 -17.4655 229.9
    endloop
  endfacet
  facet normal 0 -1 -0
    outer loop
      vertex 1.09883 -17.4655 229.9
      vertex -1.09883 -17.4655 10
      vertex 1.09883 -17.4655 10
    endloop
  endfacet
  facet normal -0.998027 -0.0627906 0
    outer loop
      vertex -17.362 -2.19333 10
      vertex -17.5 0 229.9
      vertex -17.5 0 10
    endloop
  endfacet
  facet normal -0.998027 -0.0627906 0
    outer loop
      vertex -17.5 0 229.9
      vertex -17.362 -2.19333 10
      vertex -17.362 -2.19333 229.9
    endloop
  endfacet
  facet normal -0.951056 -0.309017 0
    outer loop
      vertex -16.2711 -6.44218 10
      vertex -16.9502 -4.35207 229.9
      vertex -16.9502 -4.35207 10
    endloop
  endfacet
  facet normal -0.951056 -0.309017 0
    outer loop
      vertex -16.9502 -4.35207 229.9
      vertex -16.2711 -6.44218 10
      vertex -16.2711 -6.44218 229.9
    endloop
  endfacet
  facet normal -0.770513 -0.637424 0
    outer loop
      vertex -12.757 -11.9796 10
      vertex -14.1578 -10.2862 229.9
      vertex -14.1578 -10.2862 10
    endloop
  endfacet
  facet normal -0.770513 -0.637424 0
    outer loop
      vertex -14.1578 -10.2862 229.9
      vertex -12.757 -11.9796 10
      vertex -12.757 -11.9796 229.9
    endloop
  endfacet
  facet normal 0.368125 -0.929776 0
    outer loop
      vertex 5.4078 -16.6435 10
      vertex 7.45114 -15.8345 229.9
      vertex 5.4078 -16.6435 229.9
    endloop
  endfacet
  facet normal 0.368125 -0.929776 0
    outer loop
      vertex 7.45114 -15.8345 229.9
      vertex 5.4078 -16.6435 10
      vertex 7.45114 -15.8345 10
    endloop
  endfacet
  facet normal 0.248689 -0.968583 0
    outer loop
      vertex 3.27917 -17.19 10
      vertex 5.4078 -16.6435 229.9
      vertex 3.27917 -17.19 229.9
    endloop
  endfacet
  facet normal 0.248689 -0.968583 0
    outer loop
      vertex 5.4078 -16.6435 229.9
      vertex 3.27917 -17.19 10
      vertex 5.4078 -16.6435 10
    endloop
  endfacet
  facet normal 0.684547 -0.728969 0
    outer loop
      vertex 11.1549 -13.484 10
      vertex 12.757 -11.9796 229.9
      vertex 11.1549 -13.484 229.9
    endloop
  endfacet
  facet normal 0.684547 -0.728969 0
    outer loop
      vertex 12.757 -11.9796 229.9
      vertex 11.1549 -13.484 10
      vertex 12.757 -11.9796 10
    endloop
  endfacet
  facet normal -0.248689 -0.968583 0
    outer loop
      vertex -5.4078 -16.6435 10
      vertex -3.27917 -17.19 229.9
      vertex -5.4078 -16.6435 229.9
    endloop
  endfacet
  facet normal -0.248689 -0.968583 -0
    outer loop
      vertex -3.27917 -17.19 229.9
      vertex -5.4078 -16.6435 10
      vertex -3.27917 -17.19 10
    endloop
  endfacet
  facet normal -0.481754 -0.876307 0
    outer loop
      vertex -9.37697 -14.7757 10
      vertex -7.45114 -15.8345 229.9
      vertex -9.37697 -14.7757 229.9
    endloop
  endfacet
  facet normal -0.481754 -0.876307 -0
    outer loop
      vertex -7.45114 -15.8345 229.9
      vertex -9.37697 -14.7757 10
      vertex -7.45114 -15.8345 10
    endloop
  endfacet
  facet normal -0.982287 -0.187381 0
    outer loop
      vertex -16.9502 -4.35207 10
      vertex -17.362 -2.19333 229.9
      vertex -17.362 -2.19333 10
    endloop
  endfacet
  facet normal -0.982287 -0.187381 0
    outer loop
      vertex -17.362 -2.19333 229.9
      vertex -16.9502 -4.35207 10
      vertex -16.9502 -4.35207 229.9
    endloop
  endfacet
  facet normal 0.587785 -0.809017 0
    outer loop
      vertex 9.37697 -14.7757 10
      vertex 11.1549 -13.484 229.9
      vertex 9.37697 -14.7757 229.9
    endloop
  endfacet
  facet normal 0.587785 -0.809017 0
    outer loop
      vertex 11.1549 -13.484 229.9
      vertex 9.37697 -14.7757 10
      vertex 11.1549 -13.484 10
    endloop
  endfacet
  facet normal -0.125334 -0.992115 0
    outer loop
      vertex -3.27917 -17.19 10
      vertex -1.09883 -17.4655 229.9
      vertex -3.27917 -17.19 229.9
    endloop
  endfacet
  facet normal -0.125334 -0.992115 -0
    outer loop
      vertex -1.09883 -17.4655 229.9
      vertex -3.27917 -17.19 10
      vertex -1.09883 -17.4655 10
    endloop
  endfacet
  facet normal -0.587785 -0.809017 0
    outer loop
      vertex -11.1549 -13.484 10
      vertex -9.37697 -14.7757 229.9
      vertex -11.1549 -13.484 229.9
    endloop
  endfacet
  facet normal -0.587785 -0.809017 -0
    outer loop
      vertex -9.37697 -14.7757 229.9
      vertex -11.1549 -13.484 10
      vertex -9.37697 -14.7757 10
    endloop
  endfacet
  facet normal -0.368125 -0.929776 0
    outer loop
      vertex -7.45114 -15.8345 10
      vertex -5.4078 -16.6435 229.9
      vertex -7.45114 -15.8345 229.9
    endloop
  endfacet
  facet normal -0.368125 -0.929776 -0
    outer loop
      vertex -5.4078 -16.6435 229.9
      vertex -7.45114 -15.8345 10
      vertex -5.4078 -16.6435 10
    endloop
  endfacet
endsolid OpenSCAD_Model
